<svg width="3923" height="1985" xmlns="http://www.w3.org/2000/svg" xmlns:xlink="http://www.w3.org/1999/xlink" xml:space="preserve" overflow="hidden"><defs><linearGradient x1="3624.31" y1="230.977" x2="3624.31" y2="998.347" gradientUnits="userSpaceOnUse" spreadMethod="reflect" id="fill0"><stop offset="0" stop-color="#F7FAFD" stop-opacity="1"/><stop offset="0.74" stop-color="#B5D2EC" stop-opacity="1"/><stop offset="0.83" stop-color="#B5D2EC" stop-opacity="1"/><stop offset="1" stop-color="#CEE1F2" stop-opacity="1"/></linearGradient><linearGradient x1="2166.81" y1="828.977" x2="2166.81" y2="1596.35" gradientUnits="userSpaceOnUse" spreadMethod="reflect" id="fill1"><stop offset="0" stop-color="#F8FBF6" stop-opacity="1"/><stop offset="0.74" stop-color="#BEDCAA" stop-opacity="1"/><stop offset="0.83" stop-color="#BEDCAA" stop-opacity="1"/><stop offset="1" stop-color="#D4E8C6" stop-opacity="1"/></linearGradient><linearGradient x1="750.814" y1="1388.98" x2="750.814" y2="2157.35" gradientUnits="userSpaceOnUse" spreadMethod="reflect" id="fill2"><stop offset="0" stop-color="#FEF8F5" stop-opacity="1"/><stop offset="0.74" stop-color="#F7C4A2" stop-opacity="1"/><stop offset="0.83" stop-color="#F7C4A2" stop-opacity="1"/><stop offset="1" stop-color="#FAD8C1" stop-opacity="1"/></linearGradient></defs><g transform="translate(-238 -224)"><g><path d="M3207.4 483.634C3195.56 394.343 3256.55 312.112 3343.64 299.966 3378.92 295.044 3414.8 302.402 3445.53 320.861 3478.09 257.93 3554.17 234.014 3615.47 267.441 3626.19 273.286 3636.02 280.695 3644.67 289.435 3670.03 237.271 3731.8 216.078 3782.63 242.099 3796.7 249.301 3808.97 259.717 3818.51 272.547 3859.38 223.216 3931.6 217.123 3979.82 258.937 4000.09 276.511 4013.75 300.751 4018.46 327.5 4085.43 346.236 4124.93 417.208 4106.7 486.018 4105.17 491.803 4103.24 497.471 4100.94 502.982 4154.65 574.682 4141.5 677.449 4071.58 732.519 4049.81 749.661 4024.1 760.76 3996.93 764.744 3996.32 841.882 3934.8 903.914 3859.51 903.295 3834.36 903.088 3809.75 895.755 3788.42 882.106 3762.95 968.588 3674.13 1017.47 3590.03 991.283 3554.78 980.31 3524.33 957.103 3503.86 925.621 3417.75 978.883 3305.98 950.232 3254.22 861.628 3253.56 860.511 3252.92 859.388 3252.29 858.257 3195.94 865.021 3144.89 823.784 3138.27 766.15 3134.75 735.43 3144.64 704.682 3165.31 682.1 3116.51 652.641 3100.12 587.981 3128.69 537.678 3145.18 508.657 3174.09 489.472 3206.55 486.023Z" stroke="#7F7F7F" stroke-width="4.58333" stroke-linecap="butt" stroke-linejoin="miter" stroke-miterlimit="8" stroke-opacity="1" fill="url(#fill0)" fill-rule="evenodd"/><path d="M3226.09 693.263C3205.26 694.936 3184.43 689.998 3166.4 679.112M3278.76 848.119C3270.38 851.539 3261.6 853.816 3252.64 854.891M3503.8 922.528C3497.5 912.837 3492.22 902.48 3488.06 891.635M3794.8 845.491C3793.88 856.987 3791.77 868.349 3788.52 879.389M3919.74 636.04C3966.98 659.614 3996.78 708.901 3996.36 762.73M4100.46 501.105C4092.81 519.435 4081.14 535.695 4066.35 548.611M4018.6 324.837C4019.9 332.239 4020.5 339.752 4020.4 347.272M3800.72 298.666C3805.16 288.316 3811.05 278.678 3818.2 270.054M3637.25 312.302C3639.06 303.748 3641.91 295.459 3645.71 287.626M3445.41 320.682C3456.53 327.361 3466.81 335.4 3476.04 344.622M3212.75 508.828C3210.33 500.59 3208.54 492.168 3207.41 483.64" stroke="#7F7F7F" stroke-width="4.58333" stroke-linecap="butt" stroke-linejoin="miter" stroke-miterlimit="8" stroke-opacity="1" fill="none" fill-rule="evenodd"/><text fill="#000000" fill-opacity="1" font-family="Calibri,Calibri_MSFontService,sans-serif" font-style="normal" font-variant="normal" font-weight="400" font-stretch="normal" font-size="83" text-anchor="start" direction="ltr" writing-mode="lr-tb" unicode-bidi="normal" text-decoration="none" transform="matrix(1 0 0 1 3430.85 522)">Cognitive </text><text fill="#000000" fill-opacity="1" font-family="Calibri,Calibri_MSFontService,sans-serif" font-style="normal" font-variant="normal" font-weight="400" font-stretch="normal" font-size="83" text-anchor="start" direction="ltr" writing-mode="lr-tb" unicode-bidi="normal" text-decoration="none" transform="matrix(1 0 0 1 3414.81 621)">Databases</text><text fill="#000000" fill-opacity="1" font-family="Calibri,Calibri_MSFontService,sans-serif" font-style="normal" font-variant="normal" font-weight="400" font-stretch="normal" font-size="83" text-anchor="start" direction="ltr" writing-mode="lr-tb" unicode-bidi="normal" text-decoration="none" transform="matrix(1 0 0 1 3326.28 720)">(Human</text><text fill="#000000" fill-opacity="1" font-family="Calibri,Calibri_MSFontService,sans-serif" font-style="normal" font-variant="normal" font-weight="400" font-stretch="normal" font-size="83" text-anchor="start" direction="ltr" writing-mode="lr-tb" unicode-bidi="normal" text-decoration="none" transform="matrix(1 0 0 1 3595.55 720)">-</text><text fill="#000000" fill-opacity="1" font-family="Calibri,Calibri_MSFontService,sans-serif" font-style="normal" font-variant="normal" font-weight="400" font-stretch="normal" font-size="83" text-anchor="start" direction="ltr" writing-mode="lr-tb" unicode-bidi="normal" text-decoration="none" transform="matrix(1 0 0 1 3620.76 720)">like AI)</text><path d="M1750.31 1081.63C1738.48 992.343 1799.41 910.112 1886.41 897.966 1921.66 893.044 1957.51 900.401 1988.2 918.86 2020.73 855.93 2096.74 832.013 2157.98 865.441 2168.68 871.286 2178.51 878.695 2187.15 887.435 2212.48 835.271 2274.19 814.078 2324.98 840.099 2339.03 847.301 2351.29 857.717 2360.82 870.547 2401.65 821.216 2473.8 815.122 2521.97 856.936 2542.22 874.511 2555.87 898.751 2560.57 925.5 2627.47 944.236 2666.94 1015.21 2648.72 1084.02 2647.19 1089.8 2645.27 1095.47 2642.97 1100.98 2696.63 1172.68 2683.5 1275.45 2613.64 1330.52 2591.89 1347.66 2566.2 1358.76 2539.06 1362.74 2538.46 1439.88 2477 1501.91 2401.78 1501.29 2376.66 1501.09 2352.07 1493.75 2330.76 1480.11 2305.32 1566.59 2216.58 1615.47 2132.56 1589.28 2097.35 1578.31 2066.92 1555.1 2046.48 1523.62 1960.45 1576.88 1848.79 1548.23 1797.08 1459.63 1796.43 1458.51 1795.79 1457.39 1795.16 1456.26 1738.86 1463.02 1687.86 1421.78 1681.25 1364.15 1677.73 1333.43 1687.61 1302.68 1708.26 1280.1 1659.51 1250.64 1643.13 1185.98 1671.68 1135.68 1688.15 1106.66 1717.04 1087.47 1749.46 1084.02Z" stroke="#7F7F7F" stroke-width="4.58333" stroke-linecap="butt" stroke-linejoin="miter" stroke-miterlimit="8" stroke-opacity="1" fill="url(#fill1)" fill-rule="evenodd"/><path d="M1768.98 1291.26C1748.17 1292.94 1727.36 1288 1709.35 1277.11M1821.6 1446.12C1813.23 1449.54 1804.46 1451.82 1795.51 1452.89M2046.42 1520.53C2040.12 1510.84 2034.85 1500.48 2030.7 1489.64M2337.14 1443.49C2336.21 1454.99 2334.11 1466.35 2330.86 1477.39M2461.95 1234.04C2509.14 1257.61 2538.92 1306.9 2538.5 1360.73M2642.49 1099.1C2634.85 1117.43 2623.19 1133.69 2608.41 1146.61M2560.71 922.837C2562.01 930.239 2562.62 937.752 2562.51 945.272M2343.04 896.666C2347.49 886.316 2353.37 876.678 2360.5 868.054M2179.74 910.302C2181.55 901.748 2184.39 893.459 2188.19 885.626M1988.08 918.682C1999.19 925.361 2009.47 933.4 2018.68 942.622M1755.66 1106.83C1753.23 1098.59 1751.45 1090.17 1750.32 1081.64" stroke="#7F7F7F" stroke-width="4.58333" stroke-linecap="butt" stroke-linejoin="miter" stroke-miterlimit="8" stroke-opacity="1" fill="none" fill-rule="evenodd"/><text fill="#000000" fill-opacity="1" font-family="Calibri,Calibri_MSFontService,sans-serif" font-style="normal" font-variant="normal" font-weight="400" font-stretch="normal" font-size="83" text-anchor="start" direction="ltr" writing-mode="lr-tb" unicode-bidi="normal" text-decoration="none" transform="matrix(1 0 0 1 1844.37 1170)">Graph Databases</text><text fill="#000000" fill-opacity="1" font-family="Calibri,Calibri_MSFontService,sans-serif" font-style="normal" font-variant="normal" font-weight="400" font-stretch="normal" font-size="83" text-anchor="start" direction="ltr" writing-mode="lr-tb" unicode-bidi="normal" text-decoration="none" transform="matrix(1 0 0 1 1862.13 1269)">(Semantic Web)</text><path d="M1295.81 1486.69 1494.65 1398.84 1472.95 1349.73 1614.57 1404.55 1559.75 1546.17 1538.05 1497.06 1339.21 1584.91Z" stroke="#000000" stroke-width="4.58333" stroke-linecap="butt" stroke-linejoin="miter" stroke-miterlimit="8" stroke-opacity="1" fill="#AFABAB" fill-rule="evenodd" fill-opacity="1"/><path d="M2712.06 909.192 2910.9 821.339 2889.2 772.229 3030.82 827.052 2976 968.67 2954.3 919.56 2755.46 1007.41Z" stroke="#000000" stroke-width="4.58333" stroke-linecap="butt" stroke-linejoin="miter" stroke-miterlimit="8" stroke-opacity="1" fill="#AFABAB" fill-rule="evenodd" fill-opacity="1"/><path d="M334.312 1641.97C322.478 1552.56 383.412 1470.22 470.411 1458.06 505.664 1453.13 541.507 1460.5 572.204 1478.98 604.731 1415.97 680.741 1392.02 741.976 1425.49 752.684 1431.34 762.511 1438.76 771.152 1447.51 796.485 1395.28 858.19 1374.06 908.975 1400.12 923.031 1407.33 935.292 1417.76 944.817 1430.6 985.649 1381.21 1057.8 1375.11 1105.97 1416.98 1126.22 1434.57 1139.87 1458.84 1144.57 1485.63 1211.47 1504.39 1250.94 1575.45 1232.72 1644.35 1231.19 1650.15 1229.27 1655.82 1226.97 1661.34 1280.63 1733.13 1267.5 1836.03 1197.64 1891.18 1175.89 1908.34 1150.2 1919.45 1123.06 1923.44 1122.46 2000.68 1061 2062.79 985.784 2062.17 960.655 2061.97 936.073 2054.62 914.756 2040.96 889.316 2127.55 800.581 2176.5 716.561 2150.28 681.348 2139.29 650.924 2116.05 630.478 2084.53 544.451 2137.86 432.791 2109.17 381.079 2020.45 380.427 2019.34 379.787 2018.21 379.158 2017.08 322.857 2023.85 271.859 1982.56 265.251 1924.85 261.729 1894.09 271.608 1863.3 292.256 1840.69 243.508 1811.19 227.132 1746.45 255.68 1696.08 272.15 1667.02 301.036 1647.81 333.456 1644.36Z" stroke="#7F7F7F" stroke-width="4.58333" stroke-linecap="butt" stroke-linejoin="miter" stroke-miterlimit="8" stroke-opacity="1" fill="url(#fill2)" fill-rule="evenodd"/><path d="M352.981 1851.87C332.169 1853.54 311.36 1848.6 293.347 1837.7M405.597 2006.93C397.228 2010.35 388.455 2012.63 379.506 2013.71M630.419 2081.43C624.125 2071.73 618.855 2061.36 614.699 2050.5M921.136 2004.3C920.21 2015.81 918.106 2027.18 914.858 2038.24M1045.95 1794.57C1093.14 1818.18 1122.92 1867.53 1122.5 1921.43M1226.49 1659.46C1218.85 1677.81 1207.19 1694.1 1192.41 1707.03M1144.71 1482.96C1146.01 1490.37 1146.62 1497.9 1146.51 1505.43M927.044 1456.76C931.485 1446.39 937.366 1436.74 944.505 1428.11M763.736 1470.41C765.548 1461.85 768.388 1453.55 772.193 1445.7M572.083 1478.8C583.19 1485.49 593.466 1493.54 602.684 1502.77M339.656 1667.19C337.232 1658.94 335.446 1650.51 334.316 1641.97" stroke="#7F7F7F" stroke-width="4.58333" stroke-linecap="butt" stroke-linejoin="miter" stroke-miterlimit="8" stroke-opacity="1" fill="none" fill-rule="evenodd"/><text fill="#000000" fill-opacity="1" font-family="Calibri,Calibri_MSFontService,sans-serif" font-style="normal" font-variant="normal" font-weight="400" font-stretch="normal" font-size="83" text-anchor="start" direction="ltr" writing-mode="lr-tb" unicode-bidi="normal" text-decoration="none" transform="matrix(1 0 0 1 546.127 1681)">Relational </text><text fill="#000000" fill-opacity="1" font-family="Calibri,Calibri_MSFontService,sans-serif" font-style="normal" font-variant="normal" font-weight="400" font-stretch="normal" font-size="83" text-anchor="start" direction="ltr" writing-mode="lr-tb" unicode-bidi="normal" text-decoration="none" transform="matrix(1 0 0 1 541.268 1780)">Databases</text><text fill="#000000" fill-opacity="1" font-family="Calibri,Calibri_MSFontService,sans-serif" font-style="normal" font-variant="normal" font-weight="400" font-stretch="normal" font-size="83" text-anchor="start" direction="ltr" writing-mode="lr-tb" unicode-bidi="normal" text-decoration="none" transform="matrix(1 0 0 1 435.279 1879)">(Enterprise S/W) </text><text fill="#000000" fill-opacity="1" font-family="Arial,Arial_MSFontService,sans-serif" font-style="normal" font-variant="normal" font-weight="400" font-stretch="normal" font-size="83" text-anchor="start" direction="ltr" writing-mode="lr-tb" unicode-bidi="normal" text-decoration="none" transform="matrix(1 0 0 1 1104.94 2138)">SQL</text><text fill="#000000" fill-opacity="1" font-family="Arial,Arial_MSFontService,sans-serif" font-style="normal" font-variant="normal" font-weight="400" font-stretch="normal" font-size="83" text-anchor="start" direction="ltr" writing-mode="lr-tb" unicode-bidi="normal" text-decoration="none" transform="matrix(1 0 0 1 1994.87 1751)">SPARQL, </text><text fill="#000000" fill-opacity="1" font-family="Arial,Arial_MSFontService,sans-serif" font-style="normal" font-variant="normal" font-weight="400" font-stretch="normal" font-size="83" text-anchor="start" direction="ltr" writing-mode="lr-tb" unicode-bidi="normal" text-decoration="none" transform="matrix(1 0 0 1 2375.28 1751)">GraphQL</text><text fill="#000000" fill-opacity="1" font-family="Arial,Arial_MSFontService,sans-serif" font-style="normal" font-variant="normal" font-weight="400" font-stretch="normal" font-size="83" text-anchor="start" direction="ltr" writing-mode="lr-tb" unicode-bidi="normal" text-decoration="none" transform="matrix(1 0 0 1 2714.45 1751)">, …</text><text fill="#000000" fill-opacity="1" font-family="Arial,Arial_MSFontService,sans-serif" font-style="normal" font-variant="normal" font-weight="400" font-stretch="normal" font-size="83" text-anchor="start" direction="ltr" writing-mode="lr-tb" unicode-bidi="normal" text-decoration="none" transform="matrix(1 0 0 1 3257.33 1115)">Natural Language &amp; </text><text fill="#000000" fill-opacity="1" font-family="Arial,Arial_MSFontService,sans-serif" font-style="normal" font-variant="normal" font-weight="400" font-stretch="normal" font-size="83" text-anchor="start" direction="ltr" writing-mode="lr-tb" unicode-bidi="normal" text-decoration="none" transform="matrix(1 0 0 1 3236.71 1214)">Cooperative Problem </text><text fill="#000000" fill-opacity="1" font-family="Arial,Arial_MSFontService,sans-serif" font-style="normal" font-variant="normal" font-weight="400" font-stretch="normal" font-size="83" text-anchor="start" direction="ltr" writing-mode="lr-tb" unicode-bidi="normal" text-decoration="none" transform="matrix(1 0 0 1 3488.79 1313)">Solving</text><text fill="#000000" fill-opacity="1" font-family="Arial,Arial_MSFontService,sans-serif" font-style="normal" font-variant="normal" font-weight="400" font-stretch="normal" font-size="83" text-anchor="start" direction="ltr" writing-mode="lr-tb" unicode-bidi="normal" text-decoration="none" transform="matrix(0.915314 -0.402741 0.402741 0.915314 1206.44 1094)">For increasing flexibility and ease of development</text><text fill="#595959" fill-opacity="1" font-family="Arial,Arial_MSFontService,sans-serif" font-style="normal" font-variant="normal" font-weight="400" font-stretch="normal" font-size="55" text-anchor="start" direction="ltr" writing-mode="lr-tb" unicode-bidi="normal" text-decoration="none" transform="matrix(1 0 0 1 637.702 1957)">&lt;data&gt;</text><text fill="#595959" fill-opacity="1" font-family="Arial,Arial_MSFontService,sans-serif" font-style="normal" font-variant="normal" font-weight="400" font-stretch="normal" font-size="55" text-anchor="start" direction="ltr" writing-mode="lr-tb" unicode-bidi="normal" text-decoration="none" transform="matrix(1 0 0 1 1946.7 1352)">&lt;data, metadata&gt;</text><text fill="#595959" fill-opacity="1" font-family="Arial,Arial_MSFontService,sans-serif" font-style="normal" font-variant="normal" font-weight="400" font-stretch="normal" font-size="55" text-anchor="start" direction="ltr" writing-mode="lr-tb" unicode-bidi="normal" text-decoration="none" transform="matrix(1 0 0 1 3379.07 807)">&lt;knowledge, reasoning&gt;</text></g></g></svg>